<svg viewBox="0 0 400 300" xmlns="http://www.w3.org/2000/svg" font-family="monospace"><rect x="0" y="0" width="400" height="300" fill="#ffffff" stroke="#cccccc"/><rect x="0" y="0" width="400" height="26" fill="#1E2025"/><text x="10" y="17" font-size="11" fill="#FFB020">SOFTCAR — NAV</text><rect x="10" y="34" width="380" height="20" fill="#f3f1ec" stroke="#999999" stroke-dasharray="3,2"/><text x="16" y="50" font-size="10" fill="#555555">Titulo</text><rect x="10" y="60" width="180" height="38" fill="#e9e6dd" stroke="#999999" stroke-dasharray="3,2"/><text x="16" y="76" font-size="10" fill="#555555">Link 1</text><rect x="200" y="60" width="180" height="38" fill="#e9e6dd" stroke="#999999" stroke-dasharray="3,2"/><text x="206" y="76" font-size="10" fill="#555555">Link 2</text><rect x="10" y="105" width="180" height="38" fill="#e9e6dd" stroke="#999999" stroke-dasharray="3,2"/><text x="16" y="121" font-size="10" fill="#555555">Link 3</text><rect x="200" y="105" width="180" height="38" fill="#e9e6dd" stroke="#999999" stroke-dasharray="3,2"/><text x="206" y="121" font-size="10" fill="#555555">Link 4</text><rect x="10" y="150" width="180" height="38" fill="#e9e6dd" stroke="#999999" stroke-dasharray="3,2"/><text x="16" y="166" font-size="10" fill="#555555">Link 5</text><rect x="200" y="150" width="180" height="38" fill="#e9e6dd" stroke="#999999" stroke-dasharray="3,2"/><text x="206" y="166" font-size="10" fill="#555555">Link 6</text><rect x="10" y="195" width="180" height="38" fill="#e9e6dd" stroke="#999999" stroke-dasharray="3,2"/><text x="16" y="211" font-size="10" fill="#555555">Link 7</text><rect x="200" y="195" width="180" height="38" fill="#e9e6dd" stroke="#999999" stroke-dasharray="3,2"/><text x="206" y="211" font-size="10" fill="#555555">Link 8</text><rect x="10" y="240" width="180" height="38" fill="#e9e6dd" stroke="#999999" stroke-dasharray="3,2"/><text x="16" y="256" font-size="10" fill="#555555">Link 9</text><rect x="200" y="240" width="180" height="38" fill="#e9e6dd" stroke="#999999" stroke-dasharray="3,2"/><text x="206" y="256" font-size="10" fill="#555555">Link 10</text><rect x="0" y="278" width="400" height="22" fill="#1E2025"/><text x="10" y="293" font-size="9" fill="#C7CCD6">RODAPÉ</text><text x="200" y="270" font-size="9" fill="#999" text-anchor="middle">Wireframe — Links externos</text></svg>